<svg id="图层_1" data-name="图层 1" xmlns="http://www.w3.org/2000/svg" viewBox="0 0 2967.22 634.3"><defs><style>.cls-1{fill:#181819;}.cls-2{fill:#fefefe;}.cls-3{fill:#181818;}.cls-4{fill:#1a1919;}.cls-5{fill:#1a191a;}.cls-6{fill:#1a1a1a;}.cls-7{fill:#232324;}.cls-8{fill:#191818;}</style></defs><path class="cls-1" d="M-1041.64,762.28c-81.45.42-147.76,66.47-147.84,148.3-.1,84.42,65.67,150.33,149.37,151.09,80.87.73,150.95-67.6,149.79-150.81C-889.22,832.61-954.82,761.84-1041.64,762.28Zm6,268.46c-70.62,2.76-122.34-55.39-123-117-.79-66.62,52.2-121.26,118.33-121.24,64.54,0,120.26,53.77,119.26,119.56C-920.08,975.2-972.89,1028.28-1035.63,1030.74Z" transform="translate(1330.2 -558.66)"/><path class="cls-1" d="M-879,711.72c-24.23,0-41.89,18.42-42.37,43.11-.4,20.83,18.12,42.15,42.37,41.55,22.59-.57,41.65-19.38,41.62-42.18C-837.43,730.72-856,711.72-879,711.72Zm-.69,56.22a13.24,13.24,0,0,1-12.8-13.5c.11-8.13,5.44-13.9,12.8-13.85,7.83,0,13.27,5.88,13.14,14.07C-866.68,762-872.76,768.15-879.7,767.94Z" transform="translate(1330.2 -558.66)"/><path class="cls-1" d="M-750.32,772.76a135.62,135.62,0,0,0-2.28-23.64,146.22,146.22,0,0,0-35.77-73.51c-29.39-32.67-66.39-50.55-110.13-51-91.72-.92-183.46-.28-275.19-.34a181.71,181.71,0,0,0-33.48,2.9c-36.37,6.75-65.91,24.92-89.2,53.34-24,29.26-33.9,63.31-33.83,100.79q.23,125.93.06,251.84c0,15.22,1.13,30.3,5.08,45.08,8.23,30.87,24.78,56.59,48.67,77.5,26.28,23,57.19,36,92,36.71,48,1,96,.25,144,.25v.2h128.65c9.76,0,19.54.13,29.2-1.37,27-4.17,51.72-13.88,73-31.14,37.43-30.32,58.48-69.55,58.88-117.9C-749.75,952.57-750.31,862.66-750.32,772.76Zm-30.06,267.54c-.15,56.65-42,107.1-97.53,118.59a149.15,149.15,0,0,1-30.44,3.08c-87.08,0-174.16-.16-261.22.12-32,.1-60.88-8.46-85.48-29.21-25.21-21.29-40-48.42-43.79-81.42a189.07,189.07,0,0,1-.83-21.79q-.06-127.14,0-254.27c0-56.54,40.89-106.29,96.31-117.41a131.82,131.82,0,0,1,26-2.62h137.07v0q67.53,0,135.07,0c60.42,0,109.79,39.56,122.66,98.61a94.68,94.68,0,0,1,2.24,20.11C-780.3,862.84-780.15,951.58-780.38,1040.3Z" transform="translate(1330.2 -558.66)"/><path class="cls-2" d="M-1041.64,762.28c-81.45.42-147.76,66.47-147.84,148.3-.1,84.42,65.67,150.33,149.37,151.09,80.87.73,150.95-67.6,149.79-150.81C-889.22,832.61-954.82,761.84-1041.64,762.28Zm6,268.46c-70.62,2.76-122.34-55.39-123-117-.79-66.62,52.2-121.26,118.33-121.24,64.54,0,120.26,53.77,119.26,119.56C-920.08,975.2-972.89,1028.28-1035.63,1030.74Z" transform="translate(1330.2 -558.66)"/><path class="cls-2" d="M-879,711.72c-24.23,0-41.89,18.42-42.37,43.11-.4,20.83,18.12,42.15,42.37,41.55,22.59-.57,41.65-19.38,41.62-42.18C-837.43,730.72-856,711.72-879,711.72Zm-.69,56.22a13.24,13.24,0,0,1-12.8-13.5c.11-8.13,5.44-13.9,12.8-13.85,7.83,0,13.27,5.88,13.14,14.07C-866.68,762-872.76,768.15-879.7,767.94Z" transform="translate(1330.2 -558.66)"/><path class="cls-3" d="M-1041.64,762.28c-81.45.42-147.76,66.47-147.84,148.3-.1,84.42,65.67,150.33,149.37,151.09,80.87.73,150.95-67.6,149.79-150.81C-889.22,832.61-954.82,761.84-1041.64,762.28Zm6,268.46c-70.62,2.76-122.34-55.39-123-117-.79-66.62,52.2-121.26,118.33-121.24,64.54,0,120.26,53.77,119.26,119.56C-920.08,975.2-972.89,1028.28-1035.63,1030.74Z" transform="translate(1330.2 -558.66)"/><path class="cls-3" d="M-879,711.72c-24.23,0-41.89,18.42-42.37,43.11-.4,20.83,18.12,42.15,42.37,41.55,22.59-.57,41.65-19.38,41.62-42.18C-837.43,730.72-856,711.72-879,711.72Zm-.69,56.22a13.24,13.24,0,0,1-12.8-13.5c.11-8.13,5.44-13.9,12.8-13.85,7.83,0,13.27,5.88,13.14,14.07C-866.68,762-872.76,768.15-879.7,767.94Z" transform="translate(1330.2 -558.66)"/><path class="cls-4" d="M496.32,827.48c.22,15.25.06,30.5.06,45.74h-.09c0,15.59.13,31.17-.07,46.74-.08,6-3.35,10.6-8.83,13.09a14.57,14.57,0,0,1-15.73-1.8A15,15,0,0,1,465.55,919q-.1-45.74,0-91.47c0-8.89,6.73-15.23,15.46-15.3S496.2,818.3,496.32,827.48Z" transform="translate(1330.2 -558.66)"/><path class="cls-4" d="M715.72,828.75q0,22.62,0,45.22,0,22.08,0,44.19c0,9.54-6.11,16.17-14.85,16.2-9.32,0-15.69-6.37-15.7-16q0-45,0-89.91c0-9.78,6.15-16.18,15.43-16.23C709.66,812.21,715.7,818.75,715.72,828.75Z" transform="translate(1330.2 -558.66)"/><path class="cls-4" d="M891.67,762.33c-5.33-35.07-23.86-59.72-57.52-72.24-22.7-8.45-46.69-8.15-70.33-9.87-18.72-1.39-37.56-1.36-56.3-2.5-9.73-.6-19.47-.4-29.78-.9,10.21-15.74,20.08-30.92,29.92-46.14,10.5-16.25,21.1-32.45,31.43-48.83,5.44-8.65,1.62-19-7.76-22.24-7.22-2.48-13.76.28-18.79,8Q678,620.5,643.61,673.44a4.92,4.92,0,0,1-4.82,2.61c-32.19-.43-64.38-1.14-96.58,0-2.17.09-3.29-.73-4.41-2.45Q506.93,626.12,476,578.75c-3.12-4.79-6-9.81-9.63-14.2a15.4,15.4,0,0,0-21.27-2.86c-6.58,4.89-7.91,13-3.23,20.74,3,4.88,6.13,9.66,9.26,14.46,17.2,26.36,34.43,52.71,52,79.54-32.67,1.3-64.63,2.13-96.52,4.57-15.32,1.17-30.67,2.06-45.75,5.19-32.21,6.67-54.51,25.26-66.23,56.06-7.48,19.65-7.76,40.61-9.9,61.16s-3,41.51-3.69,62.32q-1.36,40.15-.21,80.3c.85,27.71,2.32,55.43,5.8,83,1.65,13,2.61,26.22,6.7,38.76,11.8,36,39.18,57.32,78.82,61.88,25.22,2.9,50.53,4.74,75.86,5.85,27.4,1.2,54.82,2.37,82.26,2.35,14.74,0,29.48.45,44.22.71,37.11.62,74.2-.37,111.3-1.28,31-.77,61.92-2,92.81-4.54,14.64-1.19,29.36-2,43.7-5.24,33.34-7.64,56.24-27.18,65.89-60.55,5.31-18.37,6.63-37.5,8.49-56.44,2.59-26.44,3.83-53,4.11-79.58C901.29,874.55,900.18,818.23,891.67,762.33ZM870.08,951.1c-1.48,30.55-3.44,61.07-7.7,91.43-2.28,16.28-7.1,30.71-19.63,41.92-10.42,9.33-22.82,14.07-36.51,15.54-30.46,3.26-61,4.76-91.65,5.84-44.86,1.58-89.74,3-134.65,2.65-35.4-.83-70.8-1.4-106.19-2.59-25.2-.86-50.39-2.32-75.55-4-11.94-.78-24-1.32-35.66-4.32-23.59-6.08-40.29-26.22-43.46-50.93-4.44-34.56-7-69.24-8.38-104.06q-1.76-43.49.58-86.84c1.63-31,4.23-62,8.88-92.76,3.74-24.82,26-45.7,50.83-48.42,30.11-3.28,60.33-4.6,90.55-6.21,56.52-3,113.05-4.69,169.65-3.44q51.55,1.13,103.06,3.87c23.45,1.25,46.92,2.51,70.33,4.87,32.33,3.25,53.16,23.38,57.62,55.61,3.63,26.3,5.76,52.7,7.19,79.21A1003.29,1003.29,0,0,1,870.08,951.1Z" transform="translate(1330.2 -558.66)"/><path class="cls-2" d="M496.32,827.48c.22,15.25.06,30.5.06,45.74h-.09c0,15.59.13,31.17-.07,46.74-.08,6-3.35,10.6-8.83,13.09a14.57,14.57,0,0,1-15.73-1.8A15,15,0,0,1,465.55,919q-.1-45.74,0-91.47c0-8.89,6.73-15.23,15.46-15.3S496.2,818.3,496.32,827.48Z" transform="translate(1330.2 -558.66)"/><path class="cls-2" d="M715.73,874q0,22.08,0,44.19c0,9.54-6.11,16.17-14.85,16.2-9.32,0-15.69-6.37-15.7-16q0-45,0-89.91c0-9.78,6.15-16.18,15.43-16.23,9.07,0,15.11,6.49,15.13,16.49Q715.77,851.37,715.73,874Z" transform="translate(1330.2 -558.66)"/><path class="cls-4" d="M658.78,989.26a15.14,15.14,0,0,1-14.73,16c-13.14.32-93.54.24-107.37.05-8.43-.13-14.67-8-14.13-16s6.93-14.11,15.39-14.33H554.2c2.86,0,5.75-.16,8.62,0,6.33.39,47.41.26,52.07.08,9.12-.37,18.27-.13,27.41-.1C651.71,975,658.37,980.79,658.78,989.26Z" transform="translate(1330.2 -558.66)"/><path class="cls-5" d="M715.73,874q0,22.08,0,44.19c0,9.54-6.11,16.17-14.85,16.2-9.32,0-15.69-6.37-15.7-16q0-45,0-89.91c0-9.78,6.15-16.18,15.43-16.23,9.07,0,15.11,6.49,15.13,16.49Q715.77,851.37,715.73,874Z" transform="translate(1330.2 -558.66)"/><path class="cls-6" d="M496.38,873.22h-.09c0,15.59.13,31.17-.07,46.74-.08,6-3.35,10.6-8.83,13.09a14.57,14.57,0,0,1-15.73-1.8A15,15,0,0,1,465.55,919q-.1-45.74,0-91.47c0-8.89,6.73-15.23,15.46-15.3s15.2,6,15.32,15.22C496.54,842.73,496.38,858,496.38,873.22Z" transform="translate(1330.2 -558.66)"/><path class="cls-7" d="M1585.87,670.58c-8.63-11.43-18.23-21.87-30.45-29.62-34.53-21.9-70.65-26.05-108.45-9.37a89.49,89.49,0,0,0-27.25,19.15c-18,18-36.23,35.77-53.71,54.29-9.52,10.07-24.12,7.49-27.79-4.94-2.11-7.13.41-13.24,5.53-18.42,17.57-17.8,35-35.78,52.73-53.38a132.35,132.35,0,0,1,36.46-25.92c22.36-10.6,45.88-14.53,70.58-12.66,28.62,2.17,54.34,11.81,76.87,29.35,29.23,22.77,48.9,52.12,54.62,89,6.61,42.56-2.89,81.42-31.94,114.37-20.83,23.63-43.5,45.52-65.39,68.14-14.23,14.69-28.46,29.39-43,43.76-31,30.65-68.34,45.55-112,42.39-32.27-2.33-60.18-15.28-83.84-37.46s-37-50-41.12-82c-1.07-8.26-2-16.68-.45-25,1.55-8.09,8.27-13.64,16.12-13.42,7.33.21,14.16,6.28,15.21,14.06,1.17,8.73.89,17.59,2.36,26.33,7.27,43.36,41.73,77.72,85.14,84.17,36.22,5.37,67.81-4.52,93.75-30.56,35.52-35.65,70.72-71.61,106-107.48a134.47,134.47,0,0,0,13.62-16.66c4.65-5.26,7.26-11.66,9.62-18.08a107.93,107.93,0,0,0,1.71-71.28C1597.53,688.92,1593.26,678.89,1585.87,670.58Z" transform="translate(1330.2 -558.66)"/><path class="cls-7" d="M1074.69,889.43c6.26-12,14.94-22.13,24.35-31.63q45.84-46.24,92-92.19c19.51-19.38,42.79-32,70.3-35.19,57.22-6.65,102.56,13.49,134,62.16,14.74,22.79,20.23,48.48,19.49,75.53-.08,2.94-.08,5.88-.18,8.82-.3,9.53-6.73,16.09-15.7,16.05a16,16,0,0,1-16.41-16.44c.06-8.82.44-17.61-.51-26.44-2.74-25.51-13.81-46.8-32.62-63.94a97.31,97.31,0,0,0-64.67-26c-26-.71-49.11,7.45-67.75,25.53-32.86,31.85-65.2,64.24-97.42,96.74-18.74,18.9-29.23,41.86-31,68.63-2.49,38.62,10.66,71,38.79,97.42,7.18,6.74,15.86,11.49,24.2,16.64,7,4.91,15.12,7,23.25,8.91a111.66,111.66,0,0,0,58.72-1.6c8.94-2.69,17.94-5.7,25.45-11.71,21-12.84,36.29-32,53.82-48.64,2.66-2.53,5.15-5.25,7.78-7.82,6.84-6.67,16.55-7,22.95-.74s6.42,16.34-.45,23.15c-16,15.84-31.23,32.47-48.16,47.33a134.24,134.24,0,0,1-72.67,32.78c-42.89,5.55-81.18-5.27-114.14-33.61-12.67-10.89-23.62-23.3-31.91-37.92-1.26-5.36-4.49-9.84-6.65-14.82-9-20.82-13.53-42.57-12.55-65.19,1-21.94,6.07-43,16.51-62.51C1074.12,891.66,1074.9,890.72,1074.69,889.43Z" transform="translate(1330.2 -558.66)"/><path class="cls-8" d="M98.41,831c-1.3-15.92-1.58-32-5.26-47.64-9.62-40.9-40.27-69.45-82.44-74.74-22.86-2.88-46-3.41-69-4.17q-53.76-1.77-107.59-2.25c-88.51-.72-177-.44-265.49,3.2-18.49.75-37.08.87-55.38,4.17a95.57,95.57,0,0,0-77.92,82.51C-568.15,821.61-570,851.27-571,881c-2.21,62.71-1.53,125.38,5.23,187.84,3,27.39,15.42,50,36.43,67.87,18.24,15.48,40,20.92,63.34,21.89,23.93,1,47.86,2.38,71.79,3.14,58.21,1.84,116.43,3,169.08,2.62,71,.11,136.44-1.85,201.81-4.82,13.82-.62,27.85-.22,41.38-3.32,33.32-7.62,57.21-27,70.83-58.67,6.42-14.94,7.81-30.71,9-46.72,1.82-25.51,3.3-51,3.92-76.61C102.89,926.41,102.27,878.65,98.41,831ZM70.26,945.34c-.25,31.71-1.26,63.43-3.48,95.06-1,13.7-1,27.61-5.76,40.91a66.72,66.72,0,0,1-59.53,44.77c-86.92,4.86-173.94,6.61-261,6.06-47.94-.32-95.88-1.77-143.8-3-22.14-.59-44.28-1.82-66.4-3.08-40.13-2.27-62.39-32.45-65-65q-6.14-76.35-5-152.8c.39-26.85,1.91-53.64,4.05-80.4,1-12.18,1-24.45,3.49-36.46,6.1-30,31.27-50,61.73-51.69,45-2.46,90-4.19,135-4.82,34.06-.46,68.14-.08,88.61-.08,62.65-.73,111.68-.05,160.7,1.14,30.07.73,60.14,1.81,90.16,4,33.81,2.46,57.9,32,60.16,60.75C68,848.87,70.64,897,70.26,945.34Z" transform="translate(1330.2 -558.66)"/><path class="cls-3" d="M-109.11,920.13c-2.36-2.58-5.38-4.21-8.31-5.91q-90.09-52.49-180.24-104.87c-2.79-1.62-5.63-3.16-9-3.49-11-1.12-20.05,6.79-20.09,18.12-.1,35.68,0,71.36,0,107h0c0,35.86-.07,71.71,0,107.57,0,11,7.79,18.28,18.81,18.41,5.53.06,10-2.5,14.44-5.12q53.83-31.4,107.6-62.88c24-14,47.93-28,71.72-42.31C-103.7,940.43-101.7,928.25-109.11,920.13Zm-184.76,94.39V848.7l141.41,83Z" transform="translate(1330.2 -558.66)"/></svg>