<?xml version="1.0" encoding="utf-8"?>
<!-- Generator: Adobe Illustrator 26.0.0, SVG Export Plug-In . SVG Version: 6.00 Build 0)  -->
<svg version="1.1" id="图层_1" xmlns="http://www.w3.org/2000/svg" xmlns:xlink="http://www.w3.org/1999/xlink" x="0px" y="0px"
	 viewBox="0 0 620.6 580.1" style="enable-background:new 0 0 620.6 580.1;" xml:space="preserve">
<style type="text/css">
	.st0{fill:#1A1919;}
	.st1{fill:#FEFEFE;}
	.st2{fill:#1A191A;}
	.st3{fill:#1A1A1A;}
</style>
<path class="st0" d="M216.1,268.8c0.2,15.2,0.1,30.5,0.1,45.7h-0.1c0,15.6,0.1,31.2-0.1,46.7c-0.1,6-3.4,10.6-8.8,13.1
	c-5.1,2.5-11.3,1.8-15.7-1.8c-3.9-2.9-6.2-7.4-6.1-12.2c-0.1-30.5-0.1-61,0-91.5c0-8.9,6.7-15.2,15.5-15.3S216,259.6,216.1,268.8z"
	/>
<path class="st0" d="M435.5,270.1c0,15.1,0,30.2,0,45.2c0,14.7,0,29.5,0,44.2c0,9.5-6.1,16.2-14.8,16.2c-9.3,0-15.7-6.4-15.7-16
	c0-30,0-60,0-89.9c0-9.8,6.2-16.2,15.4-16.2C429.4,253.6,435.5,260.1,435.5,270.1z"/>
<path class="st0" d="M611.5,203.7c-5.3-35.1-23.9-59.7-57.5-72.2c-22.7-8.5-46.7-8.2-70.3-9.9c-18.7-1.4-37.6-1.4-56.3-2.5
	c-9.7-0.6-19.5-0.4-29.8-0.9c10.2-15.7,20.1-30.9,29.9-46.1c10.5-16.2,21.1-32.5,31.4-48.8c5.4-8.7,1.6-19-7.8-22.2
	c-7.2-2.5-13.8,0.3-18.8,8c-23,35.3-46,70.5-68.9,105.8c-0.9,1.8-2.8,2.8-4.8,2.6c-32.2-0.4-64.4-1.1-96.6,0
	c-2.2,0.1-3.3-0.7-4.4-2.5c-20.6-31.7-41.2-63.3-61.8-94.8c-3.1-4.8-6-9.8-9.6-14.2C181-0.7,171.6-1.9,164.9,3
	c-6.6,4.9-7.9,13-3.2,20.7c3,4.9,6.1,9.7,9.3,14.5c17.2,26.4,34.4,52.7,52,79.5c-32.7,1.3-64.6,2.1-96.5,4.6
	c-15.3,1.2-30.7,2.1-45.8,5.2c-32.2,6.7-54.5,25.3-66.2,56.1c-7.5,19.7-7.8,40.6-9.9,61.2s-3,41.5-3.7,62.3
	c-0.9,26.8-1,53.5-0.2,80.3c0.9,27.7,2.3,55.4,5.8,83c1.6,13,2.6,26.2,6.7,38.8c11.8,36,39.2,57.3,78.8,61.9
	c25.2,2.9,50.5,4.7,75.9,5.8c27.4,1.2,54.8,2.4,82.3,2.3c14.7,0,29.5,0.4,44.2,0.7c37.1,0.6,74.2-0.4,111.3-1.3
	c31-0.8,61.9-2,92.8-4.5c14.6-1.2,29.4-2,43.7-5.2c33.3-7.6,56.2-27.2,65.9-60.6c5.3-18.4,6.6-37.5,8.5-56.4
	c2.6-26.4,3.8-53,4.1-79.6C621.1,315.9,620,259.6,611.5,203.7z M589.9,392.4c-1.5,30.5-3.4,61.1-7.7,91.4
	c-2.3,16.3-7.1,30.7-19.6,41.9c-10.4,9.3-22.8,14.1-36.5,15.5c-30.5,3.3-61,4.8-91.7,5.8c-44.9,1.6-89.7,3-134.7,2.7
	c-35.4-0.8-70.8-1.4-106.2-2.6c-25.2-0.9-50.4-2.3-75.5-4c-11.9-0.8-24-1.3-35.7-4.3C58.7,532.8,42,512.7,38.9,488
	c-4.4-34.6-7-69.2-8.4-104.1c-1.2-29-1-57.9,0.6-86.8c1.6-31,4.2-62,8.9-92.8c3.7-24.8,26-45.7,50.8-48.4
	c30.1-3.3,60.3-4.6,90.5-6.2c56.5-3,113-4.7,169.7-3.4c34.4,0.8,68.7,2,103.1,3.9c23.5,1.2,46.9,2.5,70.3,4.9
	c32.3,3.2,53.2,23.4,57.6,55.6c3.6,26.3,5.8,52.7,7.2,79.2C591.2,324,591.4,358.2,589.9,392.4z"/>
<path class="st1" d="M216.1,268.8c0.2,15.2,0.1,30.5,0.1,45.7h-0.1c0,15.6,0.1,31.2-0.1,46.7c-0.1,6-3.4,10.6-8.8,13.1
	c-5.1,2.5-11.3,1.8-15.7-1.8c-3.9-2.9-6.2-7.4-6.1-12.2c-0.1-30.5-0.1-61,0-91.5c0-8.9,6.7-15.2,15.5-15.3S216,259.6,216.1,268.8z"
	/>
<path class="st1" d="M435.5,315.3c0,14.7,0,29.5,0,44.2c0,9.5-6.1,16.2-14.8,16.2c-9.3,0-15.7-6.4-15.7-16c0-30,0-60,0-89.9
	c0-9.8,6.2-16.2,15.4-16.2c9.1,0,15.1,6.5,15.1,16.5C435.6,285.2,435.5,300.3,435.5,315.3z"/>
<path class="st0" d="M378.6,430.6c0.5,8.3-5.9,15.5-14.3,16c-0.2,0-0.3,0-0.5,0c-13.1,0.3-93.5,0.2-107.4,0c-8.4-0.1-14.7-8-14.1-16
	s6.9-14.1,15.4-14.3H274c2.9,0,5.8-0.2,8.6,0c6.3,0.4,47.4,0.3,52.1,0.1c9.1-0.4,18.3-0.1,27.4-0.1
	C371.5,416.3,378.2,422.1,378.6,430.6z"/>
<path class="st2" d="M435.5,315.3c0,14.7,0,29.5,0,44.2c0,9.5-6.1,16.2-14.8,16.2c-9.3,0-15.7-6.4-15.7-16c0-30,0-60,0-89.9
	c0-9.8,6.2-16.2,15.4-16.2c9.1,0,15.1,6.5,15.1,16.5C435.6,285.2,435.5,300.3,435.5,315.3z"/>
<path class="st3" d="M216.2,314.6L216.2,314.6c-0.1,15.6,0,31.2-0.2,46.7c-0.1,6-3.4,10.6-8.8,13.1c-5.1,2.5-11.3,1.8-15.7-1.8
	c-3.9-2.9-6.2-7.4-6.1-12.2c-0.1-30.5-0.1-61,0-91.5c0-8.9,6.7-15.2,15.5-15.3s15.2,6,15.3,15.2
	C216.3,284.1,216.2,299.3,216.2,314.6z"/>
</svg>
