<svg id="图层_1" data-name="图层 1" xmlns="http://www.w3.org/2000/svg" viewBox="0 0 620.62 580.09"><defs><style>.cls-1{fill:#1a1919;}.cls-2{fill:#fefefe;}.cls-3{fill:#1a191a;}.cls-4{fill:#1a1a1a;}</style></defs><path class="cls-1" d="M496.32,827.48c.22,15.25.06,30.5.06,45.74h-.09c0,15.59.13,31.17-.07,46.74-.08,6-3.35,10.6-8.83,13.09a14.57,14.57,0,0,1-15.73-1.8A15,15,0,0,1,465.55,919q-.1-45.74,0-91.47c0-8.89,6.73-15.23,15.46-15.3S496.2,818.3,496.32,827.48Z" transform="translate(-280.21 -558.66)"/><path class="cls-1" d="M715.72,828.75q0,22.62,0,45.22,0,22.08,0,44.19c0,9.54-6.11,16.17-14.85,16.2-9.32,0-15.69-6.37-15.7-16q0-45,0-89.91c0-9.78,6.15-16.18,15.43-16.23C709.66,812.21,715.7,818.75,715.72,828.75Z" transform="translate(-280.21 -558.66)"/><path class="cls-1" d="M891.67,762.33c-5.33-35.07-23.86-59.72-57.52-72.24-22.7-8.45-46.69-8.15-70.33-9.87-18.72-1.39-37.56-1.36-56.3-2.5-9.73-.6-19.47-.4-29.78-.9,10.21-15.74,20.08-30.92,29.92-46.14,10.5-16.25,21.1-32.45,31.43-48.83,5.44-8.65,1.62-19-7.76-22.24-7.22-2.48-13.76.28-18.79,8Q678,620.5,643.61,673.44a4.92,4.92,0,0,1-4.82,2.61c-32.19-.43-64.38-1.14-96.58,0-2.17.09-3.29-.73-4.41-2.45Q506.93,626.12,476,578.75c-3.12-4.79-6-9.81-9.63-14.2a15.4,15.4,0,0,0-21.27-2.86c-6.58,4.89-7.91,13-3.23,20.74,3,4.88,6.13,9.66,9.26,14.46,17.2,26.36,34.43,52.71,52,79.54-32.67,1.3-64.63,2.13-96.52,4.57-15.32,1.17-30.67,2.06-45.75,5.19-32.21,6.67-54.51,25.26-66.23,56.06-7.48,19.65-7.76,40.61-9.9,61.16s-3,41.51-3.69,62.32q-1.36,40.15-.21,80.3c.85,27.71,2.32,55.43,5.8,83,1.65,13,2.61,26.22,6.7,38.76,11.8,36,39.18,57.32,78.82,61.88,25.22,2.9,50.53,4.74,75.86,5.85,27.4,1.2,54.82,2.37,82.26,2.35,14.74,0,29.48.45,44.22.71,37.11.62,74.2-.37,111.3-1.28,31-.77,61.92-2,92.81-4.54,14.64-1.19,29.36-2,43.7-5.24,33.34-7.64,56.24-27.18,65.89-60.55,5.31-18.37,6.63-37.5,8.49-56.44,2.59-26.44,3.83-53,4.11-79.58C901.29,874.55,900.18,818.23,891.67,762.33ZM870.08,951.1c-1.48,30.55-3.44,61.07-7.7,91.43-2.28,16.28-7.1,30.71-19.63,41.92-10.42,9.33-22.82,14.07-36.51,15.54-30.46,3.26-61,4.76-91.65,5.84-44.86,1.58-89.74,3-134.65,2.65-35.4-.83-70.8-1.4-106.19-2.59-25.2-.86-50.39-2.32-75.55-4-11.94-.78-24-1.32-35.66-4.32-23.59-6.08-40.29-26.22-43.46-50.93-4.44-34.56-7-69.24-8.38-104.06q-1.76-43.49.58-86.84c1.63-31,4.23-62,8.88-92.76,3.74-24.82,26-45.7,50.83-48.42,30.11-3.28,60.33-4.6,90.55-6.21,56.52-3,113.05-4.69,169.65-3.44q51.55,1.13,103.06,3.87c23.45,1.25,46.92,2.51,70.33,4.87,32.33,3.25,53.16,23.38,57.62,55.61,3.63,26.3,5.76,52.7,7.19,79.21A1003.29,1003.29,0,0,1,870.08,951.1Z" transform="translate(-280.21 -558.66)"/><path class="cls-2" d="M496.32,827.48c.22,15.25.06,30.5.06,45.74h-.09c0,15.59.13,31.17-.07,46.74-.08,6-3.35,10.6-8.83,13.09a14.57,14.57,0,0,1-15.73-1.8A15,15,0,0,1,465.55,919q-.1-45.74,0-91.47c0-8.89,6.73-15.23,15.46-15.3S496.2,818.3,496.32,827.48Z" transform="translate(-280.21 -558.66)"/><path class="cls-2" d="M715.73,874q0,22.08,0,44.19c0,9.54-6.11,16.17-14.85,16.2-9.32,0-15.69-6.37-15.7-16q0-45,0-89.91c0-9.78,6.15-16.18,15.43-16.23,9.07,0,15.11,6.49,15.13,16.49Q715.77,851.37,715.73,874Z" transform="translate(-280.21 -558.66)"/><path class="cls-1" d="M658.78,989.26a15.14,15.14,0,0,1-14.73,16c-13.14.32-93.54.24-107.37.05-8.43-.13-14.67-8-14.13-16s6.93-14.11,15.39-14.33H554.2c2.86,0,5.75-.16,8.62,0,6.33.39,47.41.26,52.07.08,9.12-.37,18.27-.13,27.41-.1C651.71,975,658.37,980.79,658.78,989.26Z" transform="translate(-280.21 -558.66)"/><path class="cls-3" d="M715.73,874q0,22.08,0,44.19c0,9.54-6.11,16.17-14.85,16.2-9.32,0-15.69-6.37-15.7-16q0-45,0-89.91c0-9.78,6.15-16.18,15.43-16.23,9.07,0,15.11,6.49,15.13,16.49Q715.77,851.37,715.73,874Z" transform="translate(-280.21 -558.66)"/><path class="cls-4" d="M496.38,873.22h-.09c0,15.59.13,31.17-.07,46.74-.08,6-3.35,10.6-8.83,13.09a14.57,14.57,0,0,1-15.73-1.8A15,15,0,0,1,465.55,919q-.1-45.74,0-91.47c0-8.89,6.73-15.23,15.46-15.3s15.2,6,15.32,15.22C496.54,842.73,496.38,858,496.38,873.22Z" transform="translate(-280.21 -558.66)"/></svg>