<svg id="图层_1" data-name="图层 1" xmlns="http://www.w3.org/2000/svg" viewBox="0 0 645.44 697.44"><defs><style>.cls-1{fill:#fffcf5;}.cls-2{fill:#646464;}.cls-3{fill:#0f0f0f;}</style></defs><path class="cls-1" d="M386.93,658.85q-167,0-334.07.16c-5,0-4.7-2.5-4.7-5.89q.08-118.1,0-236.19V73.38c0-6.78,0-6.79,6.66-6.79l344.05.06c-.25,1.93-1.91,2.16-3.29,2.54-5,1.39-6.74,5-7.07,9.72-.19,2.66-.11,5.32-.11,8q0,280.89,0,561.8C388.4,652.11,389.24,655.74,386.93,658.85Z" transform="translate(-48.16 -20.68)"/><path class="cls-2" d="M386.93,658.85c-.05-2.16-.12-4.32-.12-6.48q0-283.75,0-567.49c0-14,0-14,12.11-18.23,10-.58,269.64-43.92,280.22-45.82C686.4,19.52,693,27,693.44,35.54c.06,1.33,0,2.66,0,4q0,330.8.16,661.57c0,17.94-8.85,18.19-21.06,16.18C653.78,714.19,390.86,659.81,386.93,658.85Z" transform="translate(-48.16 -20.68)"/><path class="cls-3" d="M667.59,683.36c0,6.88,0,6.89-6.59,5.57-39.41-7.9-201.71-39.84-243.46-47.87a18.26,18.26,0,0,0-4-.28c-2.77.08-4-1.17-3.75-3.93.1-1.16,0-2.33,0-3.5V97.55c0-7.18,0-7,7.12-8.1C438,86.07,649.49,51.93,663.31,49.39c4.55-.83,4.25,1.22,4.25,4.29C667.5,87.8,667.59,578.83,667.59,683.36Z" transform="translate(-48.16 -20.68)"/><path class="cls-2" d="M626.71,425.16a20.47,20.47,0,1,1,20.78-19.9C647.26,416.19,637.75,425.29,626.71,425.16Z" transform="translate(-48.16 -20.68)"/></svg>