<svg id="图层_1" data-name="图层 1" xmlns="http://www.w3.org/2000/svg" viewBox="0 0 580.09 568.83"><defs><style>.cls-1{fill:#181819;}.cls-2{fill:#fefefe;}.cls-3{fill:#181818;}</style></defs><path class="cls-1" d="M-1041.64,762.28c-81.45.42-147.76,66.47-147.84,148.3-.1,84.42,65.67,150.33,149.37,151.09,80.87.73,150.95-67.6,149.79-150.81C-889.22,832.61-954.82,761.84-1041.64,762.28Zm6,268.46c-70.62,2.76-122.34-55.39-123-117-.79-66.62,52.2-121.26,118.33-121.24,64.54,0,120.26,53.77,119.26,119.56C-920.08,975.2-972.89,1028.28-1035.63,1030.74Z" transform="translate(1330.2 -624.12)"/><path class="cls-1" d="M-879,711.72c-24.23,0-41.89,18.42-42.37,43.11-.4,20.83,18.12,42.15,42.37,41.55,22.59-.57,41.65-19.38,41.62-42.18C-837.43,730.72-856,711.72-879,711.72Zm-.69,56.22a13.24,13.24,0,0,1-12.8-13.5c.11-8.13,5.44-13.9,12.8-13.85,7.83,0,13.27,5.88,13.14,14.07C-866.68,762-872.76,768.15-879.7,767.94Z" transform="translate(1330.2 -624.12)"/><path class="cls-1" d="M-750.32,772.76a135.62,135.62,0,0,0-2.28-23.64,146.22,146.22,0,0,0-35.77-73.51c-29.39-32.67-66.39-50.55-110.13-51-91.72-.92-183.46-.28-275.19-.34a181.71,181.71,0,0,0-33.48,2.9c-36.37,6.75-65.91,24.92-89.2,53.34-24,29.26-33.9,63.31-33.83,100.79q.23,125.93.06,251.84c0,15.22,1.13,30.3,5.08,45.08,8.23,30.87,24.78,56.59,48.67,77.5,26.28,23,57.19,36,92,36.71,48,1,96,.25,144,.25v.2h128.65c9.76,0,19.54.13,29.2-1.37,27-4.17,51.72-13.88,73-31.14,37.43-30.32,58.48-69.55,58.88-117.9C-749.75,952.57-750.31,862.66-750.32,772.76Zm-30.06,267.54c-.15,56.65-42,107.1-97.53,118.59a149.15,149.15,0,0,1-30.44,3.08c-87.08,0-174.16-.16-261.22.12-32,.1-60.88-8.46-85.48-29.21-25.21-21.29-40-48.42-43.79-81.42a189.07,189.07,0,0,1-.83-21.79q-.06-127.14,0-254.27c0-56.54,40.89-106.29,96.31-117.41a131.82,131.82,0,0,1,26-2.62h137.07v0q67.53,0,135.07,0c60.42,0,109.79,39.56,122.66,98.61a94.68,94.68,0,0,1,2.24,20.11C-780.3,862.84-780.15,951.58-780.38,1040.3Z" transform="translate(1330.2 -624.12)"/><path class="cls-2" d="M-1041.64,762.28c-81.45.42-147.76,66.47-147.84,148.3-.1,84.42,65.67,150.33,149.37,151.09,80.87.73,150.95-67.6,149.79-150.81C-889.22,832.61-954.82,761.84-1041.64,762.28Zm6,268.46c-70.62,2.76-122.34-55.39-123-117-.79-66.62,52.2-121.26,118.33-121.24,64.54,0,120.26,53.77,119.26,119.56C-920.08,975.2-972.89,1028.28-1035.63,1030.74Z" transform="translate(1330.2 -624.12)"/><path class="cls-2" d="M-879,711.72c-24.23,0-41.89,18.42-42.37,43.11-.4,20.83,18.12,42.15,42.37,41.55,22.59-.57,41.65-19.38,41.62-42.18C-837.43,730.72-856,711.72-879,711.72Zm-.69,56.22a13.24,13.24,0,0,1-12.8-13.5c.11-8.13,5.44-13.9,12.8-13.85,7.83,0,13.27,5.88,13.14,14.07C-866.68,762-872.76,768.15-879.7,767.94Z" transform="translate(1330.2 -624.12)"/><path class="cls-3" d="M-1041.64,762.28c-81.45.42-147.76,66.47-147.84,148.3-.1,84.42,65.67,150.33,149.37,151.09,80.87.73,150.95-67.6,149.79-150.81C-889.22,832.61-954.82,761.84-1041.64,762.28Zm6,268.46c-70.62,2.76-122.34-55.39-123-117-.79-66.62,52.2-121.26,118.33-121.24,64.54,0,120.26,53.77,119.26,119.56C-920.08,975.2-972.89,1028.28-1035.63,1030.74Z" transform="translate(1330.2 -624.12)"/><path class="cls-3" d="M-879,711.72c-24.23,0-41.89,18.42-42.37,43.11-.4,20.83,18.12,42.15,42.37,41.55,22.59-.57,41.65-19.38,41.62-42.18C-837.43,730.72-856,711.72-879,711.72Zm-.69,56.22a13.24,13.24,0,0,1-12.8-13.5c.11-8.13,5.44-13.9,12.8-13.85,7.83,0,13.27,5.88,13.14,14.07C-866.68,762-872.76,768.15-879.7,767.94Z" transform="translate(1330.2 -624.12)"/></svg>