<?xml version="1.0" encoding="utf-8"?>
<!-- Generator: Adobe Illustrator 26.0.0, SVG Export Plug-In . SVG Version: 6.00 Build 0)  -->
<svg version="1.1" id="图层_1" xmlns="http://www.w3.org/2000/svg" xmlns:xlink="http://www.w3.org/1999/xlink" x="0px" y="0px"
	 viewBox="0 0 580.1 568.8" style="enable-background:new 0 0 580.1 568.8;" xml:space="preserve">
<style type="text/css">
	.st0{fill:#181819;}
	.st1{fill:#FEFEFE;}
	.st2{fill:#181818;}
</style>
<path class="st0" d="M288.6,138.2c-81.4,0.4-147.8,66.5-147.8,148.3c-0.1,84.4,65.7,150.3,149.4,151.1
	c80.9,0.7,151-67.6,149.8-150.8C441,208.5,375.4,137.7,288.6,138.2z M294.6,406.6c-70.6,2.8-122.3-55.4-123-117
	c-0.8-66.6,52.2-121.3,118.3-121.2c64.5,0,120.3,53.8,119.3,119.6C410.1,351.1,357.3,404.2,294.6,406.6L294.6,406.6z"/>
<path class="st0" d="M451.2,87.6c-24.2,0-41.9,18.4-42.4,43.1c-0.4,20.8,18.1,42.2,42.4,41.5c22.6-0.6,41.7-19.4,41.6-42.2
	C492.8,106.6,474.2,87.6,451.2,87.6z M450.5,143.8c-7.2-0.2-12.9-6.3-12.8-13.5c0.1-8.1,5.4-13.9,12.8-13.8
	c7.8,0,13.3,5.9,13.1,14.1C463.5,137.9,457.5,144,450.5,143.8L450.5,143.8z"/>
<path class="st0" d="M579.9,148.6c-0.1-7.9-0.8-15.8-2.3-23.6c-4.7-27.4-17.1-52.9-35.8-73.5c-29.4-32.7-66.4-50.5-110.1-51
	C340-0.4,248.3,0.2,156.5,0.1C145.3,0.1,134.1,1.1,123,3C86.7,9.8,57.1,28,33.8,56.4C9.8,85.7-0.1,119.7,0,157.2
	c0.2,84,0.2,167.9,0.1,251.8c0,15.2,1.1,30.3,5.1,45.1c8.2,30.9,24.8,56.6,48.7,77.5c26.3,23,57.2,36,92,36.7c48,1,96,0.2,144,0.2
	v0.2h128.7c9.8,0,19.5,0.1,29.2-1.4c27-4.2,51.7-13.9,73-31.1c37.4-30.3,58.5-69.6,58.9-117.9C580.5,328.4,579.9,238.5,579.9,148.6z
	 M549.8,416.2c-0.2,56.7-42,107.1-97.5,118.6c-10,2.1-20.2,3.1-30.4,3.1c-87.1,0-174.2-0.2-261.2,0.1c-32,0.1-60.9-8.5-85.5-29.2
	c-25.2-21.3-40-48.4-43.8-81.4c-0.7-7.2-1-14.5-0.8-21.8c0-84.8,0-169.5,0-254.3c0-56.5,40.9-106.3,96.3-117.4
	c8.6-1.7,17.3-2.6,26-2.6h137.1l0,0c45,0,90,0,135.1,0c60.4,0,109.8,39.6,122.7,98.6c1.5,6.6,2.2,13.3,2.2,20.1
	C549.9,238.7,550.1,327.5,549.8,416.2z"/>
<path class="st1" d="M288.6,138.2c-81.4,0.4-147.8,66.5-147.8,148.3c-0.1,84.4,65.7,150.3,149.4,151.1
	c80.9,0.7,151-67.6,149.8-150.8C441,208.5,375.4,137.7,288.6,138.2z M294.6,406.6c-70.6,2.8-122.3-55.4-123-117
	c-0.8-66.6,52.2-121.3,118.3-121.2c64.5,0,120.3,53.8,119.3,119.6C410.1,351.1,357.3,404.2,294.6,406.6L294.6,406.6z"/>
<path class="st1" d="M451.2,87.6c-24.2,0-41.9,18.4-42.4,43.1c-0.4,20.8,18.1,42.2,42.4,41.5c22.6-0.6,41.7-19.4,41.6-42.2
	C492.8,106.6,474.2,87.6,451.2,87.6z M450.5,143.8c-7.2-0.2-12.9-6.3-12.8-13.5c0.1-8.1,5.4-13.9,12.8-13.8
	c7.8,0,13.3,5.9,13.1,14.1C463.5,137.9,457.5,144,450.5,143.8L450.5,143.8z"/>
<path class="st2" d="M288.6,138.2c-81.4,0.4-147.8,66.5-147.8,148.3c-0.1,84.4,65.7,150.3,149.4,151.1
	c80.9,0.7,151-67.6,149.8-150.8C441,208.5,375.4,137.7,288.6,138.2z M294.6,406.6c-70.6,2.8-122.3-55.4-123-117
	c-0.8-66.6,52.2-121.3,118.3-121.2c64.5,0,120.3,53.8,119.3,119.6C410.1,351.1,357.3,404.2,294.6,406.6L294.6,406.6z"/>
<path class="st2" d="M451.2,87.6c-24.2,0-41.9,18.4-42.4,43.1c-0.4,20.8,18.1,42.2,42.4,41.5c22.6-0.6,41.7-19.4,41.6-42.2
	C492.8,106.6,474.2,87.6,451.2,87.6z M450.5,143.8c-7.2-0.2-12.9-6.3-12.8-13.5c0.1-8.1,5.4-13.9,12.8-13.8
	c7.8,0,13.3,5.9,13.1,14.1C463.5,137.9,457.5,144,450.5,143.8L450.5,143.8z"/>
</svg>
