<svg id="图层_1" data-name="图层 1" xmlns="http://www.w3.org/2000/svg" viewBox="0 0 580.09 518.87"><defs><style>.cls-1{fill:#232324;}</style></defs><path class="cls-1" d="M1585.87,670.58c-8.63-11.43-18.23-21.87-30.45-29.62-34.53-21.9-70.65-26.05-108.45-9.37a89.49,89.49,0,0,0-27.25,19.15c-18,18-36.23,35.77-53.71,54.29-9.52,10.07-24.12,7.49-27.79-4.94-2.11-7.13.41-13.24,5.53-18.42,17.57-17.8,35-35.78,52.73-53.38a132.35,132.35,0,0,1,36.46-25.92c22.36-10.6,45.88-14.53,70.58-12.66,28.62,2.17,54.34,11.81,76.87,29.35,29.23,22.77,48.9,52.12,54.62,89,6.61,42.56-2.89,81.42-31.94,114.37-20.83,23.63-43.5,45.52-65.39,68.14-14.23,14.69-28.46,29.39-43,43.76-31,30.65-68.34,45.55-112,42.39-32.27-2.33-60.18-15.28-83.84-37.46s-37-50-41.12-82c-1.07-8.26-2-16.68-.45-25,1.55-8.09,8.27-13.64,16.12-13.42,7.33.21,14.16,6.28,15.21,14.06,1.17,8.73.89,17.59,2.36,26.33,7.27,43.36,41.73,77.72,85.14,84.17,36.22,5.37,67.81-4.52,93.75-30.56,35.52-35.65,70.72-71.61,106-107.48a134.47,134.47,0,0,0,13.62-16.66c4.65-5.26,7.26-11.66,9.62-18.08a107.93,107.93,0,0,0,1.71-71.28C1597.53,688.92,1593.26,678.89,1585.87,670.58Z" transform="translate(-1056.93 -589.26)"/><path class="cls-1" d="M1074.69,889.43c6.26-12,14.94-22.13,24.35-31.63q45.84-46.24,92-92.19c19.51-19.38,42.79-32,70.3-35.19,57.22-6.65,102.56,13.49,134,62.16,14.74,22.79,20.23,48.48,19.49,75.53-.08,2.94-.08,5.88-.18,8.82-.3,9.53-6.73,16.09-15.7,16.05a16,16,0,0,1-16.41-16.44c.06-8.82.44-17.61-.51-26.44-2.74-25.51-13.81-46.8-32.62-63.94a97.31,97.31,0,0,0-64.67-26c-26-.71-49.11,7.45-67.75,25.53-32.86,31.85-65.2,64.24-97.42,96.74-18.74,18.9-29.23,41.86-31,68.63-2.49,38.62,10.66,71,38.79,97.42,7.18,6.74,15.86,11.49,24.2,16.64,7,4.91,15.12,7,23.25,8.91a111.66,111.66,0,0,0,58.72-1.6c8.94-2.69,17.94-5.7,25.45-11.71,21-12.84,36.29-32,53.82-48.64,2.66-2.53,5.15-5.25,7.78-7.82,6.84-6.67,16.55-7,22.95-.74s6.42,16.34-.45,23.15c-16,15.84-31.23,32.47-48.16,47.33a134.24,134.24,0,0,1-72.67,32.78c-42.89,5.55-81.18-5.27-114.14-33.61-12.67-10.89-23.62-23.3-31.91-37.92-1.26-5.36-4.49-9.84-6.65-14.82-9-20.82-13.53-42.57-12.55-65.19,1-21.94,6.07-43,16.51-62.51C1074.12,891.66,1074.9,890.72,1074.69,889.43Z" transform="translate(-1056.93 -589.26)"/></svg>