<?xml version="1.0" encoding="utf-8"?>
<!-- Generator: Adobe Illustrator 26.0.0, SVG Export Plug-In . SVG Version: 6.00 Build 0)  -->
<svg version="1.1" id="图层_1" xmlns="http://www.w3.org/2000/svg" xmlns:xlink="http://www.w3.org/1999/xlink" x="0px" y="0px"
	 viewBox="0 0 580.1 518.9" style="enable-background:new 0 0 580.1 518.9;" xml:space="preserve">
<style type="text/css">
	.st0{fill:#232324;}
</style>
<path class="st0" d="M528.9,81.3c-8.6-11.4-18.2-21.9-30.5-29.6C464,29.8,427.8,25.6,390,42.3c-10.2,4.6-19.4,11.1-27.3,19.2
	c-18,18-36.2,35.8-53.7,54.3c-9.5,10.1-24.1,7.5-27.8-4.9c-2.1-7.1,0.4-13.2,5.5-18.4c17.6-17.8,35-35.8,52.7-53.4
	c10.6-10.6,22.9-19.4,36.5-25.9c22.4-10.6,45.9-14.5,70.6-12.7c28.6,2.2,54.3,11.8,76.9,29.4c29.2,22.8,48.9,52.1,54.6,89
	c6.6,42.6-2.9,81.4-31.9,114.4c-20.8,23.6-43.5,45.5-65.4,68.1c-14.2,14.7-28.5,29.4-43,43.8c-31,30.7-68.3,45.6-112,42.4
	c-32.3-2.3-60.2-15.3-83.8-37.5s-37-50-41.1-82c-1.1-8.3-2-16.7-0.4-25c1.6-8.1,8.3-13.6,16.1-13.4c7.3,0.2,14.2,6.3,15.2,14.1
	c1.2,8.7,0.9,17.6,2.4,26.3c7.3,43.4,41.7,77.7,85.1,84.2c36.2,5.4,67.8-4.5,93.8-30.6c35.5-35.7,70.7-71.6,106-107.5
	c5-5.2,9.5-10.8,13.6-16.7c4.7-5.3,7.3-11.7,9.6-18.1c8.6-22.9,9.2-48,1.7-71.3C540.6,99.7,536.3,89.6,528.9,81.3z"/>
<path class="st0" d="M17.8,300.2c6.3-12,14.9-22.1,24.4-31.6c30.6-30.8,61.2-61.6,92-92.2c19.5-19.4,42.8-32,70.3-35.2
	c57.2-6.7,102.6,13.5,134,62.2c14.7,22.8,20.2,48.5,19.5,75.5c-0.1,2.9-0.1,5.9-0.2,8.8c-0.3,9.5-6.7,16.1-15.7,16.1
	c-8.8,0.2-16.2-6.7-16.4-15.6c0-0.3,0-0.6,0-0.9c0.1-8.8,0.4-17.6-0.5-26.4c-2.7-25.5-13.8-46.8-32.6-63.9
	c-17.6-16.4-40.6-25.6-64.7-26c-26-0.7-49.1,7.5-67.8,25.5c-32.9,31.9-65.2,64.2-97.4,96.7c-18.7,18.9-29.2,41.9-31,68.6
	c-2.5,38.6,10.7,71,38.8,97.4c7.2,6.7,15.9,11.5,24.2,16.6c7,4.9,15.1,7,23.3,8.9c19.4,4.7,39.6,4.2,58.7-1.6
	c8.9-2.7,17.9-5.7,25.5-11.7c21-12.8,36.3-32,53.8-48.6c2.7-2.5,5.2-5.3,7.8-7.8c6.8-6.7,16.6-7,23-0.7c6.4,6.3,6.4,16.3-0.4,23.2
	c-16,15.8-31.2,32.5-48.2,47.3c-20.3,18-45.7,29.5-72.7,32.8c-42.9,5.6-81.2-5.3-114.1-33.6C38.5,473,27.6,460.6,19.3,446
	c-1.3-5.4-4.5-9.8-6.7-14.8c-9-20.8-13.5-42.6-12.6-65.2c1-21.9,6.1-43,16.5-62.5C17.2,302.4,18,301.5,17.8,300.2z"/>
</svg>
