<svg id="图层_1" data-name="图层 1" xmlns="http://www.w3.org/2000/svg" viewBox="0 0 657.02 498.94"><defs><style>.cls-1{fill:#191818;}.cls-2{fill:#181818;}</style></defs><path class="cls-1" d="M62.64,763.23c-1.27-17.17-1.54-34.52-5.13-51.39-9.37-44.13-39.22-74.92-80.31-80.63-22.27-3.11-44.78-3.68-67.21-4.5q-52.38-1.9-104.81-2.42c-86.24-.79-172.47-.48-258.65,3.44-18,.82-36.12.95-53.94,4.51-40.19,8-71.13,44.24-75.92,89-3.4,31.84-5.2,63.83-6.21,95.84-2.15,67.66-1.48,135.27,5.1,202.65,2.9,29.55,15,54,35.49,73.22,17.77,16.7,39,22.57,61.7,23.62,23.32,1.07,46.63,2.57,69.95,3.39,56.7,2,113.42,3.26,164.72,2.82,69.2.12,132.91-2,196.6-5.19,13.46-.68,27.13-.25,40.31-3.59,32.46-8.22,55.74-29.13,69-63.29,6.25-16.13,7.6-33.14,8.72-50.4,1.77-27.53,3.21-55.08,3.81-82.65C67,866.14,66.4,814.62,62.64,763.23ZM35.22,886.57C35,920.77,34,955,31.82,989.11c-.94,14.78-1,29.79-5.61,44.14-9,27.94-31.48,46.66-58,48.3-84.68,5.24-169.45,7.13-254.25,6.53-46.7-.33-93.4-1.9-140.09-3.28-21.57-.63-43.14-2-64.69-3.31-39.09-2.45-60.78-35-63.32-70.08q-6-82.35-4.9-164.84c.38-29,1.86-57.87,3.94-86.74,1-13.13,1-26.37,3.4-39.33,5.94-32.34,30.47-54,60.14-55.76,43.83-2.65,87.67-4.52,131.54-5.2,33.19-.5,66.39-.09,86.33-.09,61-.78,108.8-.05,156.55,1.24,29.3.78,58.6,1.95,87.84,4.3,32.94,2.67,56.41,34.58,58.61,65.54C33,782.49,35.59,834.45,35.22,886.57Z" transform="translate(590.64 -623.94)"/><path class="cls-2" d="M-139.53,859.37c-2.3-2.78-5.24-4.54-8.09-6.38q-87.76-56.62-175.59-113.13c-2.72-1.75-5.5-3.41-8.73-3.77-10.74-1.2-19.54,7.33-19.58,19.55-.09,38.49,0,77,0,115.47h0c0,38.69-.06,77.36,0,116,0,11.9,7.59,19.72,18.32,19.86,5.39.07,9.72-2.7,14.08-5.52q52.44-33.87,104.82-67.84c23.33-15.14,46.69-30.22,69.87-45.65C-134.26,881.27-132.31,868.12-139.53,859.37Zm-180,101.83V782.31c46.09,30,91.62,59.58,137.76,89.58Z" transform="translate(590.64 -623.94)"/></svg>